<?xml version="1.0" encoding="UTF-8"?>
<svg width="36px" height="30px" viewBox="0 0 36 30" version="1.1" xmlns="http://www.w3.org/2000/svg" xmlns:xlink="http://www.w3.org/1999/xlink">
    <title>quote</title>
    <g id="Desktop" stroke="none" stroke-width="1" fill="none" fill-rule="evenodd">
        <g id="Single-Blog" transform="translate(-1059.000000, -3110.000000)" fill="#333333" fill-rule="nonzero">
            <g id="Group-8" transform="translate(345.000000, 2915.000000)">
                <g id="quote" transform="translate(732.000000, 210.000000) scale(-1, 1) translate(-732.000000, -210.000000) translate(714.000000, 195.000000)">
                    <path d="M11.3007407,13.6811111 C10.4311111,13.4307407 9.56148148,13.3037037 8.71555556,13.3037037 C7.40925926,13.3037037 6.31925926,13.6022222 5.47407407,13.9677778 C6.28888889,10.9848148 8.2462963,5.83777778 12.1455556,5.25814815 C12.5066667,5.20444444 12.8025926,4.94333333 12.9011111,4.59185185 L13.7533333,1.5437037 C13.8251852,1.28592593 13.7825926,1.01 13.6355556,0.786296296 C13.4885185,0.562592593 13.2522222,0.413333333 12.9874074,0.377037037 C12.6996296,0.337777778 12.4062963,0.317777778 12.1155556,0.317777778 C7.43518519,0.317777778 2.8,5.20296296 0.844074074,12.1977778 C-0.304074074,16.3014815 -0.640740741,22.4711111 2.18740741,26.3544444 C3.77,28.5274074 6.07888889,29.6877778 9.05,29.8037037 C9.06222222,29.8040741 9.07407407,29.8044444 9.0862963,29.8044444 C12.7522222,29.8044444 16.002963,27.3355556 16.9918519,23.8011111 C17.5825926,21.6881481 17.3155556,19.4722222 16.2392593,17.56 C15.1744444,15.6692593 13.4207407,14.2911111 11.3007407,13.6811111 Z" id="Path"></path>
                    <path d="M34.2485185,17.5603704 C33.1837037,15.6692593 31.43,14.2911111 29.31,13.6811111 C28.4403704,13.4307407 27.5707407,13.3037037 26.7251852,13.3037037 C25.4188889,13.3037037 24.3285185,13.6022222 23.4833333,13.9677778 C24.2981481,10.9848148 26.2555556,5.83777778 30.1551852,5.25814815 C30.5162963,5.20444444 30.8118519,4.94333333 30.9107407,4.59185185 L31.762963,1.5437037 C31.8348148,1.28592593 31.7922222,1.01 31.6451852,0.786296296 C31.4985185,0.562592593 31.2622222,0.413333333 30.997037,0.377037037 C30.7096296,0.337777778 30.4162963,0.317777778 30.1251852,0.317777778 C25.4448148,0.317777778 20.8096296,5.20296296 18.8533333,12.1977778 C17.7055556,16.3014815 17.3688889,22.4711111 20.1974074,26.3551852 C21.7796296,28.5277778 24.0888889,29.6885185 27.0596296,29.8040741 C27.0718519,29.8044444 27.0837037,29.8048148 27.0962963,29.8048148 C30.7618519,29.8048148 34.012963,27.3359259 35.0018519,23.8014815 C35.5918519,21.6885185 35.3244444,19.4722222 34.2485185,17.5603704 Z" id="Path"></path>
                </g>
            </g>
        </g>
    </g>
</svg>